<svg id="Layer_1" data-name="Layer 1" xmlns="http://www.w3.org/2000/svg" width="117" height="97" viewBox="0 0 117 97"><defs><style>.cls-1{fill:#ff4e00;}</style></defs><title>Artboard 1</title><path class="cls-1" d="M11.1748,42.2441a15.4933,15.4933,0,0,1-6.459-6.2753,19.9573,19.9573,0,0,1-2.3535-10,21.3882,21.3882,0,0,1,2.7788-11.25,18.1711,18.1711,0,0,1,7.0855-6.875,18.7506,18.7506,0,0,1,8.8628-2.2745,15.1014,15.1014,0,0,1,5.5576,1q-1.3023-.1-1.8526-.1005a15.7287,15.7287,0,0,0-13.9448,8.3,18.541,18.541,0,0,0-2.1782,9.1005,20.0111,20.0111,0,0,0,1.8525,8.95,13.3283,13.3283,0,0,0,5.2578,5.75,15.5325,15.5325,0,0,0,8.0113,2A20.5824,20.5824,0,0,0,28.7,39.9941a10.5015,10.5015,0,0,0,3.605-1.4755l.05.0507a11.81,11.81,0,0,1-2.4287,2.6748,13.4085,13.4085,0,0,1-4.0059,2.2247,15.8409,15.8409,0,0,1-5.5327.9A19.74,19.74,0,0,1,11.1748,42.2441ZM27.5483,15.3193a4.3241,4.3241,0,0,1-1.4521-1.45,3.7527,3.7527,0,0,1-.5508-2,4.0286,4.0286,0,0,1,.5259-2.0253,3.9761,3.9761,0,0,1,1.4521-1.4747,3.903,3.903,0,0,1,2.0279-.55,4.0078,4.0078,0,0,1,2.0532.5245,3.6728,3.6728,0,0,1,1.4018,1.45,4.196,4.196,0,0,1,.5,2.0254,4.07,4.07,0,0,1-1.9526,3.5,3.9233,3.9233,0,0,1-4.0059,0Z"/><path class="cls-1" d="M39.0645,43.5693a4.4347,4.4347,0,0,0,1.227-1.9,8.2181,8.2181,0,0,0,.4258-2.75v-27.1a6.4582,6.4582,0,0,0-.6011-2.875,3.6155,3.6155,0,0,0-1.6025-1.7255v-.1l7.561-3.15h.05v34.95a8.2059,8.2059,0,0,0,.4253,2.75,4.4165,4.4165,0,0,0,1.227,1.9v.1H39.0645Z"/><path class="cls-1" d="M57.5659,42.3936q-1.8771-1.9747-1.8774-6.7745v-10.7a6.4571,6.4571,0,0,0-.6011-2.875,3.6111,3.6111,0,0,0-1.602-1.7246v-.1l7.5605-3.15h.05v17.05a9.4231,9.4231,0,0,0,1.6523,5.95,6.04,6.04,0,0,0,5.0572,2.1,2.7382,2.7382,0,0,0,1.4023-.3v.1a9.317,9.317,0,0,1-2.6538,1.65,8.9666,8.9666,0,0,1-3.6553.75A7.0092,7.0092,0,0,1,57.5659,42.3936Zm14.6963-20.35A3.61,3.61,0,0,0,70.66,20.3193v-.1l7.561-3.15h.05v22.15a4.5382,4.5382,0,0,0,.6255,2.3251,3.641,3.641,0,0,0,1.5776,1.5254v.1l-7.561,1.3h-.05v-19.55A6.4639,6.4639,0,0,0,72.2622,22.0439Z"/><path class="cls-1" d="M93.3174,40.9189a7.8559,7.8559,0,0,0,2.7783,3.4,15.0354,15.0354,0,0,1-5.4072-1.4l-3.605,1.45v-32.55a6.4582,6.4582,0,0,0-.6011-2.875A3.6155,3.6155,0,0,0,84.88,7.2188v-.1l7.5615-3.15h.05v32.4A11.8251,11.8251,0,0,0,93.3174,40.9189Zm14.2451-22.15a10.9789,10.9789,0,0,1,3.9063,4.6005,14.9774,14.9774,0,0,1,1.3515,6.4,14.4879,14.4879,0,0,1-1.1767,5.8505,14.11,14.11,0,0,1-3.23,4.6495,14.5128,14.5128,0,0,1-4.7071,3q3.2052-3.9991,3.2051-12.1495a16.1457,16.1457,0,0,0-1.2773-6.7753,9.3383,9.3383,0,0,0-3.6055-4.2,10.297,10.297,0,0,0-5.4824-1.4248,2.8344,2.8344,0,0,0-.7266.1,1.1727,1.1727,0,0,0-.5254.25v-.1a6.927,6.927,0,0,1,2.5039-1.3252,11.69,11.69,0,0,1,3.7559-.5743A10.59,10.59,0,0,1,107.5625,18.7686Z"/><path class="cls-1" d="M7.4443,90.6943A13.7937,13.7937,0,0,1,4.04,85.1436a23.04,23.04,0,0,1-1.1265-7.4248,25.1738,25.1738,0,0,1,2.5288-11.25,20.0612,20.0612,0,0,1,6.9346-8.0752,16.326,16.326,0,0,1,9.7143-2.7745v.05a13.884,13.884,0,0,0-6.935,4.0254,21.37,21.37,0,0,0-4.7071,7.8243,30.1327,30.1327,0,0,0-1.6772,10.2q0,12.4012,4.2558,16.05A12.1583,12.1583,0,0,1,7.4443,90.6943Zm16.649-1.1757a21.0153,21.0153,0,0,0,.9013-6.6,14.2459,14.2459,0,0,0-.976-5.65,7.7575,7.7575,0,0,0-2.5289-3.35,7.6136,7.6136,0,0,0-3.455-1.35,10.8292,10.8292,0,0,1,2.2031-.2,11.9,11.9,0,0,1,5.1074,1.125,9.5163,9.5163,0,0,1,3.8809,3.2745,8.6206,8.6206,0,0,1,1.477,5,12.044,12.044,0,0,1-1.1767,5.3252,11.4787,11.4787,0,0,1-3.28,4.0751,13.58,13.58,0,0,1-4.8071,2.4A8.2181,8.2181,0,0,0,24.0933,89.5186Z"/><path class="cls-1" d="M37.7129,89.0186l14.3706-.05a10.95,10.95,0,0,0,2.8794-.55,14.3479,14.3479,0,0,0,3.1045-1.4248,10.6383,10.6383,0,0,0,2.6289-2.2255h.1l-.2,4.3007v4.6H33.5068v-.55Zm-1.8276-22.25a3.617,3.617,0,0,1-1.377-1.375,3.7052,3.7052,0,0,1-.5-1.875,3.5805,3.5805,0,0,1,.5-1.85,3.8786,3.8786,0,0,1,1.377-1.375,3.7759,3.7759,0,0,1,1.978-.5253,3.6992,3.6992,0,0,1,1.9028.5,3.7608,3.7608,0,0,1,1.3521,1.3505,3.59,3.59,0,0,1,.5,1.85,3.8114,3.8114,0,0,1-.5,1.9248,3.6725,3.6725,0,0,1-3.2549,1.875A3.912,3.912,0,0,1,35.8853,66.7686Zm14.621,8.3007a19.0155,19.0155,0,0,0,2.0279-4.5507,17.0038,17.0038,0,0,0,.6011-4.6,8.8876,8.8876,0,0,0-1.377-5.0253,9.1887,9.1887,0,0,0-3.6553-3.1993,14.933,14.933,0,0,0-5.0322-1.4257,12.089,12.089,0,0,1,4.0059-.6993A15.6574,15.6574,0,0,1,53.36,56.7939a10.6855,10.6855,0,0,1,4.4565,3.4249,8.1236,8.1236,0,0,1,1.6274,4.95,8.4428,8.4428,0,0,1-1.1518,4.125,22.91,22.91,0,0,1-3.9307,4.8252,81.0435,81.0435,0,0,1-7.7861,6.55l-.05-.05A48.4818,48.4818,0,0,0,50.5063,75.0693Z"/></svg>