<svg id="Layer_1" data-name="Layer 1" xmlns="http://www.w3.org/2000/svg" width="1920" height="1080" viewBox="0 0 1920 1080"><defs><style>.cls-1{fill:#ff4e00;}.cls-2{fill:none;stroke:#fff;stroke-miterlimit:10;stroke-width:3px;}</style></defs><title>Artboard 1</title><rect width="1920" height="1080"/><path class="cls-1" d="M97.4609,285.4082q19.5,45,19.5,113,0,78-18,132t-53,81q54-15,96-48a229.5127,229.5127,0,0,0,65.5-81.5q23.4844-48.4921,23.5-106.5,0-57-29.5-100-29.5077-42.9843-77.5-65.5a237.388,237.388,0,0,0-102-22.5q-11.6406,0-21.9609.8828v7.6309a151.3764,151.3764,0,0,1,46.9609,22.4863Q77.9453,240.4161,97.4609,285.4082Z"/><path class="cls-1" d="M777.4663,479.9082a286.1232,286.1232,0,0,1-62,28.5q-31.5,10.0079-57.5,11l-287,1-84,82v11H827.9668v-92l4-86h-2A212.3459,212.3459,0,0,1,777.4663,479.9082Z"/><path class="cls-1" d="M666.9663,150.4082q-12,43.0078-40.5,91-28.5,48-79.5,111l1,1q99.9844-75.9843,155.5-131,55.5-54.9843,78.5-96.5,22.9929-41.4843,23-82.5A168.6434,168.6434,0,0,0,799.4518,0H670.9761q7.9633,26.6809,7.99,58.4082Q678.9663,107.4161,666.9663,150.4082Z"/><path class="cls-1" d="M306.9663,47.9082a72.4074,72.4074,0,0,0,27.5,27.5q17.4844,10.0079,39.5,10a73.3152,73.3152,0,0,0,65-37.5,76.3144,76.3144,0,0,0,10-38.5A76.0225,76.0225,0,0,0,448.3853,0H297.6785a75.9014,75.9014,0,0,0-.7122,10.4082A74.2519,74.2519,0,0,0,306.9663,47.9082Z"/><path class="cls-1" d="M1074.9727,205.8965q83.0373,40.7157,178.4144,48.5943V137.8438q-83.63-5.6531-157.4144-31.9473-93.9845-33.4922-156.5-94Q933.4144,6.0315,927.778,0H878.681a336.7149,336.7149,0,0,0,34.7917,67.3965Q971.9727,155.4044,1074.9727,205.8965Z"/><path class="cls-1" d="M359.7451,932.94q62.4845,60.4923,80.5,138.5h1q3-106.0077-55.5-194-58.5-88.0077-161.5-138.5Q121.5569,688.5893,0,688.4453V805.444q109.5591.1149,203.2451,33.4964Q297.23,872.4327,359.7451,932.94Z"/><path class="cls-1" d="M102.2451,990.44a151.9056,151.9056,0,0,1-27,69A123.2342,123.2342,0,0,1,56.69,1080h45.3444a244.56,244.56,0,0,0,4.2106-45.56Q106.2451,1009.4327,102.2451,990.44Z"/><path class="cls-1" d="M842.5244,862.4248v-1q-106.0079-3-194,55.5-88.0079,58.5-138.5,161.5c-.2567.5236-.5033,1.0509-.7581,1.5752H617.3784q32.51-81.1324,86.646-137.0752Q764.5165,880.44,842.5244,862.4248Z"/><path class="cls-1" d="M1222.5293,1056.9248a76.3154,76.3154,0,0,0,10-38.5,71.8239,71.8239,0,0,0-10-37,75.04,75.04,0,0,0-27-27,73.67,73.67,0,0,0-38-10q-22.0078,0-39.5,10.5a77.54,77.54,0,0,0-27.5,27.5,71.6732,71.6732,0,0,0-10,37,74.2519,74.2519,0,0,0,10,37.5A72.25,72.25,0,0,0,1111.1611,1080h91.047A74.114,74.114,0,0,0,1222.5293,1056.9248Z"/><path class="cls-2" d="M970.126,529.3647a85.1383,85.1383,0,0,1-35.4746-34.5126q-12.93-22.8231-12.9253-55,0-36.5706,15.2627-61.875,15.2622-25.2979,38.9126-37.8125,23.6469-12.5106,48.6748-12.5123a82.9062,82.9062,0,0,1,30.5244,5.5q-7.1542-.5478-10.1748-.55a86.3712,86.3712,0,0,0-76.5869,45.65q-11.9626,21.7272-11.9629,50.05,0,28.6041,10.1748,49.2251,10.17,20.625,28.875,31.625,18.6987,11.0017,44,11a112.9361,112.9361,0,0,0,26.95-3.1626q12.9228-3.1581,19.8-8.1127l.2754.2753a64.8472,64.8472,0,0,1-13.3379,14.7124q-8.6616,7.29-22,12.2374-13.3417,4.95-30.3877,4.9506Q992.6768,541.0527,970.126,529.3647Zm89.9248-148.0874a23.6763,23.6763,0,0,1-7.9746-7.9751,20.6526,20.6526,0,0,1-3.0254-11,22.1925,22.1925,0,0,1,2.8877-11.1376,21.8482,21.8482,0,0,1,7.9746-8.1124,21.4046,21.4046,0,0,1,11.1377-3.0249,21.9637,21.9637,0,0,1,11.2754,2.8873,20.1656,20.1656,0,0,1,7.7,7.975,23.1,23.1,0,0,1,2.75,11.1377,22.3911,22.3911,0,0,1-10.7256,19.25,21.5131,21.5131,0,0,1-22,0Z"/><path class="cls-2" d="M1123.2988,536.6523a24.3558,24.3558,0,0,0,6.7373-10.45,45.2468,45.2468,0,0,0,2.3379-15.125v-149.05a35.5806,35.5806,0,0,0-3.3-15.8125q-3.3-6.7353-8.8008-9.4877v-.55l41.5254-17.3251h.2754v192.225a45.1513,45.1513,0,0,0,2.3369,15.125,24.2865,24.2865,0,0,0,6.7373,10.45v.55h-47.85Z"/><path class="cls-2" d="M1224.9111,530.19q-10.3125-10.86-10.3125-37.2623v-58.85a35.5833,35.5833,0,0,0-3.3-15.8125q-3.3-6.7353-8.8008-9.4873v-.55l41.5254-17.3248h.2754v93.7749q0,21.18,9.0742,32.7251,9.0762,11.55,27.7754,11.55a15.0215,15.0215,0,0,0,7.7-1.65v.55q-5.228,4.95-14.5752,9.0751a49.1707,49.1707,0,0,1-20.0752,4.1255Q1235.2241,541.0527,1224.9111,530.19Zm80.7119-111.9249q-3.2988-6.7353-8.8-9.4873v-.55l41.5254-17.3248h.2744V512.7271a24.9771,24.9771,0,0,0,3.4375,12.7875,19.9781,19.9781,0,0,0,8.6631,8.3877v.55l-41.5254,7.1495h-.2744V434.0771A35.57,35.57,0,0,0,1305.623,418.2646Z"/><path class="cls-2" d="M1421.2607,522.0771a43.1467,43.1467,0,0,0,15.2627,18.7,82.4155,82.4155,0,0,1-29.7-7.7l-19.8,7.9756V362.0273a35.5792,35.5792,0,0,0-3.3-15.8125q-3.3-6.7353-8.8007-9.4877v-.55l41.5253-17.3251h.2754v178.2A65.1211,65.1211,0,0,0,1421.2607,522.0771ZM1499.498,400.252a60.3161,60.3161,0,0,1,21.45,25.3,82.3932,82.3932,0,0,1,7.4248,35.2,79.7928,79.7928,0,0,1-6.4619,32.1752,77.63,77.63,0,0,1-17.7382,25.5748,79.84,79.84,0,0,1-25.85,16.5q17.5957-21.9976,17.6-66.8248,0-21.9983-7.0118-37.2626-7.0135-15.2623-19.8007-23.1t-30.1124-7.8374a15.5137,15.5137,0,0,0-3.9873.55,6.5218,6.5218,0,0,0-2.8877,1.375v-.55q4.396-4.125,13.75-7.2876a64.1034,64.1034,0,0,1,20.625-3.1622Q1485.4736,390.9023,1499.498,400.252Z"/><path class="cls-2" d="M949.6387,795.84a75.8542,75.8542,0,0,1-18.7-30.5253q-6.1875-18.2857-6.1875-40.837,0-33.5478,13.8877-61.875,13.883-28.3212,38.0869-44.413a89.5692,89.5692,0,0,1,53.3506-15.2627v.2753q-21.45,4.95-38.0879,22.1377-16.642,17.19-25.85,43.0372-9.2169,25.853-9.2124,56.1005,0,68.2032,23.3745,88.2745A66.73,66.73,0,0,1,949.6387,795.84Zm91.4375-6.4628q4.95-14.8492,4.95-36.3,0-18.6972-5.3633-31.0751-5.3613-12.375-13.8867-18.4249a41.7748,41.7748,0,0,0-18.9756-7.4248,59.3888,59.3888,0,0,1,12.1006-1.1005,65.2821,65.2821,0,0,1,28.05,6.1875,52.2857,52.2857,0,0,1,21.3125,18.0127q8.1078,11.8271,8.1123,27.5a66.2994,66.2994,0,0,1-6.4629,29.288,63.1174,63.1174,0,0,1-18.0117,22.4121,74.5191,74.5191,0,0,1-26.4,13.2Q1036.1235,804.227,1041.0762,789.377Z"/><path class="cls-2" d="M1115.8779,786.627l78.9248-.2745a60.2556,60.2556,0,0,0,15.8125-3.0254,78.6814,78.6814,0,0,0,17.05-7.8378,58.3978,58.3978,0,0,0,14.4375-12.2373h.55l-1.1,23.65v25.3H1092.7773v-3.0253ZM1105.84,664.252a19.9121,19.9121,0,0,1-7.5625-7.5625,20.4161,20.4161,0,0,1-2.75-10.3125,19.708,19.708,0,0,1,2.75-10.1749,21.327,21.327,0,0,1,7.5625-7.5625,20.6945,20.6945,0,0,1,10.8623-2.8876,20.2606,20.2606,0,0,1,10.45,2.75,20.6281,20.6281,0,0,1,7.4248,7.4248,19.7473,19.7473,0,0,1,2.75,10.1757,20.9785,20.9785,0,0,1-2.75,10.587,20.1611,20.1611,0,0,1-17.875,10.3125A21.4757,21.4757,0,0,1,1105.84,664.252Zm80.3,45.65a104.6785,104.6785,0,0,0,11.1377-25.0253,93.73,93.73,0,0,0,3.3-25.3q0-16.2231-7.5625-27.6376a50.4953,50.4953,0,0,0-20.0742-17.6,81.9057,81.9057,0,0,0-27.6377-7.8378,66.2345,66.2345,0,0,1,22-3.85,85.897,85.897,0,0,1,34.5127,6.7373q15.5333,6.7413,24.4746,18.8379a44.7233,44.7233,0,0,1,8.9375,27.2246q0,11.2794-6.3252,22.6875-6.33,11.4141-21.5869,26.5372-15.2637,15.1274-42.7627,36.0253l-.2754-.2753A266.0708,266.0708,0,0,0,1186.14,709.9023Z"/></svg>