<svg id="Layer_1" data-name="Layer 1" xmlns="http://www.w3.org/2000/svg" width="768" height="1024" viewBox="0 0 768 1024"><defs><style>.cls-1{fill:none;stroke:#fff;stroke-miterlimit:10;stroke-width:3px;}.cls-2{fill:#ff4e00;}</style></defs><title>Artboard 1</title><rect width="768" height="1024"/><path class="cls-1" d="M84.8184,627.9746a68.1163,68.1163,0,0,1-28.38-27.61q-10.3432-18.2593-10.34-44,0-29.2573,12.21-49.5,12.2094-20.2383,31.13-30.25a82.3066,82.3066,0,0,1,38.94-10.01,66.3347,66.3347,0,0,1,24.42,4.4q-5.7231-.438-8.14-.44a69.0991,69.0991,0,0,0-61.27,36.52q-9.57,17.3819-9.57,40.04,0,22.8838,8.14,39.38a58.6057,58.6057,0,0,0,23.1,25.3008q14.9583,8.8008,35.2,8.7988a90.3736,90.3736,0,0,0,21.56-2.5293q10.338-2.5269,15.84-6.49l.22.2207a51.8933,51.8933,0,0,1-10.67,11.7695,58.9638,58.9638,0,0,1-17.6,9.79,69.5824,69.5824,0,0,1-24.31,3.96Q102.8584,637.3242,84.8184,627.9746Zm71.94-118.4707a18.94,18.94,0,0,1-6.38-6.38,16.52,16.52,0,0,1-2.42-8.8,17.7518,17.7518,0,0,1,2.31-8.91,17.4766,17.4766,0,0,1,6.38-6.49,17.12,17.12,0,0,1,8.91-2.42,17.57,17.57,0,0,1,9.02,2.31,16.1286,16.1286,0,0,1,6.16,6.38,18.4753,18.4753,0,0,1,2.2,8.91,17.9118,17.9118,0,0,1-8.58,15.4,17.2108,17.2108,0,0,1-17.6,0Z"/><path class="cls-1" d="M207.3569,633.8047a19.4877,19.4877,0,0,0,5.39-8.36,36.21,36.21,0,0,0,1.87-12.1005V494.104a28.4547,28.4547,0,0,0-2.64-12.65,15.89,15.89,0,0,0-7.04-7.59v-.44l33.22-13.86h.22v153.78a36.1088,36.1088,0,0,0,1.87,12.1005,19.421,19.421,0,0,0,5.39,8.36v.4394h-38.28Z"/><path class="cls-1" d="M288.6465,628.6348q-8.25-8.6895-8.25-29.8106v-47.08a28.4551,28.4551,0,0,0-2.64-12.65,15.8968,15.8968,0,0,0-7.04-7.59v-.4394l33.22-13.86h.22v75.02q0,16.9424,7.26,26.18,7.26,9.24,22.22,9.24a12.019,12.019,0,0,0,6.16-1.32v.4395a40.9226,40.9226,0,0,1-11.66,7.26,39.3281,39.3281,0,0,1-16.06,3.3008Q296.8964,637.3242,288.6465,628.6348Zm64.57-89.541a15.9039,15.9039,0,0,0-7.04-7.59v-.4394l33.22-13.86h.22v97.46a19.9843,19.9843,0,0,0,2.75,10.23,15.972,15.972,0,0,0,6.9307,6.709v.44l-33.2207,5.72h-.22v-86.02A28.4619,28.4619,0,0,0,353.2168,539.0938Z"/><path class="cls-1" d="M445.7256,622.1445a34.5133,34.5133,0,0,0,12.21,14.959,65.9073,65.9073,0,0,1-23.76-6.1592l-15.84,6.38V494.104a28.4465,28.4465,0,0,0-2.6406-12.65,15.8874,15.8874,0,0,0-7.04-7.59v-.44l33.2207-13.86h.22v142.56A52.1112,52.1112,0,0,0,445.7256,622.1445Zm62.59-97.4609a48.2566,48.2566,0,0,1,17.16,20.24,65.9214,65.9214,0,0,1,5.94,28.16,63.8388,63.8388,0,0,1-5.17,25.74,62.1079,62.1079,0,0,1-14.19,20.46,63.8916,63.8916,0,0,1-20.68,13.2q14.0757-17.5986,14.08-53.461,0-17.5971-5.61-29.8086t-15.84-18.48q-10.2306-6.27-24.09-6.27a12.3744,12.3744,0,0,0-3.19.44,5.2181,5.2181,0,0,0-2.31,1.1v-.4394q3.5157-3.3,11-5.83a51.277,51.277,0,0,1,16.5-2.53Q497.0962,517.2041,508.3154,524.6836Z"/><path class="cls-1" d="M68.4282,841.1543a60.69,60.69,0,0,1-14.96-24.42,101.5167,101.5167,0,0,1-4.95-32.67,110.8971,110.8971,0,0,1,11.11-49.5q11.1065-22.6567,30.47-35.53a71.6457,71.6457,0,0,1,42.68-12.21v.22q-17.16,3.9611-30.47,17.71-13.314,13.752-20.68,34.4307a132.72,132.72,0,0,0-7.37,44.88q0,54.5625,18.7,70.62A53.3854,53.3854,0,0,1,68.4282,841.1543Zm73.15-5.17q3.96-11.88,3.96-29.04,0-14.9589-4.29-24.86-4.29-9.8994-11.11-14.74a33.4194,33.4194,0,0,0-15.18-5.9395,47.46,47.46,0,0,1,9.68-.88,52.2144,52.2144,0,0,1,22.44,4.95,41.8207,41.8207,0,0,1,17.05,14.4092,37.96,37.96,0,0,1,6.49,22,53.0428,53.0428,0,0,1-5.17,23.4307,50.4957,50.4957,0,0,1-14.41,17.93,59.604,59.604,0,0,1-21.12,10.56Q137.617,847.8639,141.5786,835.9844Z"/><path class="cls-1" d="M201.42,833.7842l63.14-.22a48.2127,48.2127,0,0,0,12.65-2.42,62.9571,62.9571,0,0,0,13.64-6.27,46.712,46.712,0,0,0,11.55-9.79h.44l-.88,18.92v20.24H182.94v-2.42Zm-8.03-97.9a15.9257,15.9257,0,0,1-6.05-6.05,16.3375,16.3375,0,0,1-2.2-8.25,15.7685,15.7685,0,0,1,2.2-8.14,17.0627,17.0627,0,0,1,6.05-6.05,16.554,16.554,0,0,1,8.69-2.3105,16.2025,16.2025,0,0,1,8.36,2.2,16.5094,16.5094,0,0,1,5.94,5.94,15.7982,15.7982,0,0,1,2.2,8.14,16.7894,16.7894,0,0,1-2.2,8.47,16.13,16.13,0,0,1-14.3,8.25A17.1815,17.1815,0,0,1,193.39,735.8838Zm64.24,36.5205a83.7449,83.7449,0,0,0,8.91-20.0205,74.9928,74.9928,0,0,0,2.64-20.2393q0-12.9784-6.05-22.11a40.4013,40.4013,0,0,0-16.06-14.08,65.5132,65.5132,0,0,0-22.11-6.2695,52.9778,52.9778,0,0,1,17.6-3.08,68.7212,68.7212,0,0,1,27.61,5.39,46.9453,46.9453,0,0,1,19.58,15.07,35.7746,35.7746,0,0,1,7.15,21.7793,37.1935,37.1935,0,0,1-5.06,18.15q-5.0631,9.1318-17.27,21.2305-12.21,12.1011-34.21,28.8193l-.22-.22A213.0089,213.0089,0,0,0,257.63,772.4043Z"/><path class="cls-2" d="M92.0464,422.6011Q30.0571,369.3789,30.0625,188.52q0-80.2089,24.4292-148.7617A368.2185,368.2185,0,0,1,71.2755,0H0V366.3025q5.135,5.9491,10.7378,11.4514Q43.9121,410.21,92.0464,422.6011Z"/><path class="cls-2" d="M271.4355,126.9a173.1046,173.1046,0,0,0-74.3808-16.4072,157.4716,157.4716,0,0,0-32.0859,2.9165,110.7782,110.7782,0,0,1,50.3168,19.6889q22.5945,16.0489,36.8257,48.8584,14.22,32.8148,14.22,82.4024,0,56.8791-13.126,96.2573t-38.6489,59.0674a197.5945,197.5945,0,0,0,70.0058-35.0029A167.3743,167.3743,0,0,0,332.3262,325.25q17.1255-35.3613,17.1367-77.6626,0-41.5656-21.5122-72.9223A138.6224,138.6224,0,0,0,271.4355,126.9Z"/><path class="cls-2" d="M747.9883,323.791a208.6552,208.6552,0,0,1-45.2119,20.7832q-22.97,7.298-41.9307,8.0215l-209.2871.729-61.2549,59.7964v8.0215H768V309.488A161.46,161.46,0,0,1,747.9883,323.791Z"/><path class="cls-2" d="M667.4092,83.5117q-8.751,31.3623-29.5342,66.3594-20.7832,35.0025-57.9727,80.9438l.7286.729q72.9111-55.4091,113.3945-95.5283Q734.4975,95.92,751.27,65.6455,767.365,36.6055,768,7.88V3.227c-.0182-1.0784-.0349-2.1574-.0791-3.227H675.3732q.7761,7.968.786,16.4229A248.6063,248.6063,0,0,1,667.4092,83.5117Z"/><path class="cls-2" d="M424.9414,28.82a56.945,56.945,0,0,0,28.8047,7.292A53.6139,53.6139,0,0,0,481.457,28.82,53.7419,53.7419,0,0,0,501.1455,8.7661,54.9627,54.9627,0,0,0,505.1788,0H400.82a56.07,56.07,0,0,0,4.0684,8.7661A52.7965,52.7965,0,0,0,424.9414,28.82Z"/></svg>