<svg id="Layer_1" data-name="Layer 1" xmlns="http://www.w3.org/2000/svg" width="375" height="812" viewBox="0 0 375 812"><defs><style>.cls-1{fill:none;stroke:#fff;stroke-miterlimit:10;stroke-width:3px;}.cls-2{fill:#ff4e00;}</style></defs><title>Artboard 1</title><rect width="375" height="812"/><path class="cls-1" d="M49.0947,473.7471a42.6448,42.6448,0,0,1-17.7793-17.2725q-6.48-11.4213-6.478-27.5254,0-18.3018,7.6494-30.9658a50.0051,50.0051,0,0,1,19.502-18.9229,51.6249,51.6249,0,0,1,24.395-6.2626,41.6152,41.6152,0,0,1,15.2983,2.7529q-3.5852-.2739-5.1-.2754a43.2952,43.2952,0,0,0-38.3838,22.8457q-5.9955,10.8735-5.9951,25.0478,0,14.316,5.0991,24.6348a36.6739,36.6739,0,0,0,14.4717,15.8272q9.3706,5.5063,22.0518,5.5048a56.6914,56.6914,0,0,0,13.5068-1.582,28.9412,28.9412,0,0,0,9.9233-4.06l.1377.1377a32.4478,32.4478,0,0,1-6.6845,7.3632,36.96,36.96,0,0,1-11.0259,6.1241,43.6445,43.6445,0,0,1-15.23,2.4775A54.33,54.33,0,0,1,49.0947,473.7471Zm45.0684-74.1123a11.8539,11.8539,0,0,1-3.9971-3.99,10.3278,10.3278,0,0,1-1.5161-5.5058,11.09,11.09,0,0,1,1.4473-5.5733,10.9381,10.9381,0,0,1,3.997-4.06,10.7426,10.7426,0,0,1,5.5816-1.5137,11.0156,11.0156,0,0,1,5.6509,1.4453,10.0883,10.0883,0,0,1,3.8588,3.9912,11.5411,11.5411,0,0,1,1.3785,5.5733,11.2019,11.2019,0,0,1-5.375,9.6338,10.7905,10.7905,0,0,1-11.0259,0Z"/><path class="cls-1" d="M125.8618,477.3936a12.1878,12.1878,0,0,0,3.3765-5.2295,22.6129,22.6129,0,0,0,1.1714-7.5694V390.001a17.78,17.78,0,0,0-1.6538-7.9131,9.9466,9.9466,0,0,0-4.41-4.7481v-.2753l20.811-8.67h.1382v96.2a22.5649,22.5649,0,0,0,1.1714,7.5694,12.1432,12.1432,0,0,0,3.3765,5.2295v.2753h-23.981Z"/><path class="cls-1" d="M176.7871,474.1592q-5.168-5.4347-5.1684-18.6485V426.06a17.783,17.783,0,0,0-1.6539-7.9141,9.95,9.95,0,0,0-4.41-4.748v-.2754l20.811-8.67h.1382v46.9307q0,10.5981,4.5488,16.377,4.547,5.78,13.92,5.78a7.5454,7.5454,0,0,0,3.8593-.8252v.2745a25.6759,25.6759,0,0,1-7.3047,4.5419,24.6883,24.6883,0,0,1-10.0625,2.0645Q181.9559,479.5957,176.7871,474.1592Zm40.4512-56.0137a9.941,9.941,0,0,0-4.41-4.748v-.2754l20.8106-8.67h.1386V465.42a12.4824,12.4824,0,0,0,1.7227,6.4,10.0135,10.0135,0,0,0,4.3418,4.1973v.2754l-20.8125,3.5781h-.1367V426.06A17.7707,17.7707,0,0,0,217.2383,418.1455Z"/><path class="cls-1" d="M275.1934,470.1a21.5964,21.5964,0,0,0,7.6494,9.3584,41.3449,41.3449,0,0,1-14.8848-3.8535l-9.9238,3.9912V390.001a17.78,17.78,0,0,0-1.6533-7.9131A9.9483,9.9483,0,0,0,251.97,377.34v-.2753l20.8115-8.67h.1377v89.1807A32.5608,32.5608,0,0,0,275.1934,470.1Zm39.2109-60.9678a30.1957,30.1957,0,0,1,10.75,12.6612,41.1781,41.1781,0,0,1,3.7217,17.6162,39.8742,39.8742,0,0,1-3.2393,16.1015,38.8487,38.8487,0,0,1-8.89,12.8,40.0253,40.0253,0,0,1-12.9551,8.2579q8.8184-11.01,8.82-33.4434,0-11.01-3.5146-18.6484a25.6966,25.6966,0,0,0-9.9229-11.5606,28.3324,28.3324,0,0,0-15.0918-3.9219,7.78,7.78,0,0,0-1.998.2745,3.2747,3.2747,0,0,0-1.4473.6884v-.2754a19.059,19.059,0,0,1,6.8906-3.6464,32.17,32.17,0,0,1,10.3369-1.5831A29.1573,29.1573,0,0,1,314.4043,409.1318Z"/><path class="cls-1" d="M38.8267,607.1064A37.9586,37.9586,0,0,1,29.4546,591.83a63.4164,63.4164,0,0,1-3.1011-20.4375,69.2866,69.2866,0,0,1,6.9605-30.9658A55.2048,55.2048,0,0,1,52.4023,518.2,44.9355,44.9355,0,0,1,79.14,510.5615v.1377a38.2246,38.2246,0,0,0-19.0883,11.0791,58.8319,58.8319,0,0,0-12.9556,21.5381,82.9237,82.9237,0,0,0-4.6172,28.0762q0,34.1323,11.7148,44.1777A33.4652,33.4652,0,0,1,38.8267,607.1064Zm45.8266-3.2343a57.8659,57.8659,0,0,0,2.48-18.167q0-9.3574-2.6875-15.5518a21.3623,21.3623,0,0,0-6.96-9.2207,20.9571,20.9571,0,0,0-9.51-3.7158,29.8255,29.8255,0,0,1,6.0639-.5508,32.7543,32.7543,0,0,1,14.0581,3.0967A26.1952,26.1952,0,0,1,98.78,568.7773a23.7216,23.7216,0,0,1,4.0654,13.7627,33.1422,33.1422,0,0,1-3.2388,14.6573A31.6015,31.6015,0,0,1,90.58,608.4141a37.367,37.367,0,0,1-13.231,6.6054Q82.171,611.3033,84.6533,603.8721Z"/><path class="cls-1" d="M122.1421,602.4961l39.5557-.1377a30.2331,30.2331,0,0,0,7.9248-1.5146,39.4454,39.4454,0,0,0,8.5449-3.9219,29.2577,29.2577,0,0,0,7.2358-6.124h.2754l-.5513,11.8359v12.6611H110.5649v-1.5137Zm-5.0308-61.2441a9.9731,9.9731,0,0,1-3.79-3.7842,10.209,10.209,0,0,1-1.3779-5.1612,9.8525,9.8525,0,0,1,1.3779-5.0918,10.6832,10.6832,0,0,1,3.79-3.7851,10.3871,10.3871,0,0,1,5.4444-1.4453,10.1668,10.1668,0,0,1,5.2373,1.3769,10.331,10.331,0,0,1,3.7212,3.7158,9.8722,9.8722,0,0,1,1.3784,5.0918,10.493,10.493,0,0,1-1.3784,5.2989,10.11,10.11,0,0,1-8.9585,5.1611A10.77,10.77,0,0,1,117.1113,541.252Zm40.2447,22.8466a52.3622,52.3622,0,0,0,5.582-12.5244,46.8488,46.8488,0,0,0,1.6538-12.6611,24.46,24.46,0,0,0-3.79-13.832,25.3052,25.3052,0,0,0-10.0611-8.8077,41.0936,41.0936,0,0,0-13.8515-3.9228,33.2586,33.2586,0,0,1,11.0258-1.9268,43.1014,43.1014,0,0,1,17.2969,3.3721,29.401,29.401,0,0,1,12.2666,9.4277,22.361,22.361,0,0,1,4.479,13.625,23.2362,23.2362,0,0,1-3.17,11.3535q-3.1721,5.7129-10.8188,13.2813a222.929,222.929,0,0,1-21.4317,18.0293l-.1382-.1377A133.2773,133.2773,0,0,0,157.356,564.0986Z"/><path class="cls-2" d="M38.7588,182.7075q9.3941,21.6468,9.3935,54.3574,0,37.5213-8.6709,63.4976T13.9492,339.5264a130.6158,130.6158,0,0,0,46.2471-23.09A110.4373,110.4373,0,0,0,91.749,277.2319q11.313-23.3268,11.3213-51.2309,0-27.419-14.2119-48.1035a91.5371,91.5371,0,0,0-37.334-31.5083A114.4955,114.4955,0,0,0,2.3877,135.5659c-.808,0-1.5992.0113-2.3877.0244v6.9037a73.7685,73.7685,0,0,1,14.4316,7.984Q29.3569,161.0644,38.7588,182.7075Z"/><path class="cls-2" d="M305.6406,25.1675q13.2436,19.9672,13.2481,48.3442a163.7651,163.7651,0,0,1-5.7813,44.2559q-5.78,20.688-19.51,43.7744-13.73,23.09-38.2979,53.3955l.4814.481q48.1656-36.5515,74.9092-63.0162,26.7363-26.45,37.8164-46.42A96.1728,96.1728,0,0,0,375,91.75V39.2612a79.8632,79.8632,0,0,0-11.07-20.5874A94.6878,94.6878,0,0,0,345.5619,0H280.3205A87.6806,87.6806,0,0,1,305.6406,25.1675Z"/><path class="cls-2" d="M366.3389,276.27a137.9534,137.9534,0,0,1-29.8672,13.71,105.6862,105.6862,0,0,1-27.7,5.291l-138.2569.4815L130.05,335.1973v5.291H375V270.4214C372.2375,272.4808,369.361,274.44,366.3389,276.27Z"/><path class="cls-2" d="M152.9316,81.69A37.6625,37.6625,0,0,0,171.96,86.5a35.328,35.328,0,0,0,31.3125-18.0391,36.6631,36.6631,0,0,0,4.8173-18.52,34.508,34.508,0,0,0-4.8173-17.7983,36.1227,36.1227,0,0,0-13.0069-12.9878A35.5231,35.5231,0,0,0,171.96,14.3442a36.286,36.286,0,0,0-19.0284,5.0508,37.326,37.326,0,0,0-13.247,13.2285,34.4328,34.4328,0,0,0-4.8174,17.7984,35.67,35.67,0,0,0,4.8174,18.039A34.8531,34.8531,0,0,0,152.9316,81.69Z"/></svg>