<svg id="Layer_1" data-name="Layer 1" xmlns="http://www.w3.org/2000/svg" width="63" height="47" viewBox="0 0 63 47"><defs><style>.cls-1{fill:#ff4e00;}</style></defs><title>Artboard 1</title><path class="cls-1" d="M7.4443,40.6943A13.7937,13.7937,0,0,1,4.04,35.1436a23.04,23.04,0,0,1-1.1265-7.4248,25.1738,25.1738,0,0,1,2.5288-11.25,20.0612,20.0612,0,0,1,6.9346-8.0752,16.326,16.326,0,0,1,9.7143-2.7745v.05a13.884,13.884,0,0,0-6.935,4.0254,21.37,21.37,0,0,0-4.7071,7.8243,30.1327,30.1327,0,0,0-1.6772,10.2q0,12.4012,4.2563,16.05A12.1574,12.1574,0,0,1,7.4443,40.6943Zm16.65-1.1757a21.031,21.031,0,0,0,.9008-6.6,14.2459,14.2459,0,0,0-.976-5.65,7.7575,7.7575,0,0,0-2.5289-3.35,7.6136,7.6136,0,0,0-3.455-1.35,10.8292,10.8292,0,0,1,2.2031-.2,11.9,11.9,0,0,1,5.1074,1.125,9.5163,9.5163,0,0,1,3.8809,3.2745,8.6206,8.6206,0,0,1,1.477,5,12.044,12.044,0,0,1-1.1767,5.3252,11.4787,11.4787,0,0,1-3.28,4.0751,13.5818,13.5818,0,0,1-4.8067,2.4A8.2242,8.2242,0,0,0,24.0938,39.5186Z"/><path class="cls-1" d="M37.7134,39.0186l14.3711-.05a10.9467,10.9467,0,0,0,2.8789-.55,14.3393,14.3393,0,0,0,3.1045-1.4248,10.6311,10.6311,0,0,0,2.6289-2.2255h.1l-.2,4.3007v4.6H33.5073v-.55Zm-1.8277-22.25a3.6209,3.6209,0,0,1-1.3769-1.375,3.7052,3.7052,0,0,1-.5005-1.875,3.5805,3.5805,0,0,1,.5005-1.85,3.8832,3.8832,0,0,1,1.3769-1.375,3.7765,3.7765,0,0,1,1.9781-.5253,3.7,3.7,0,0,1,1.9028.5,3.7608,3.7608,0,0,1,1.3521,1.3505,3.59,3.59,0,0,1,.5,1.85,3.8113,3.8113,0,0,1-.5,1.9248,3.6725,3.6725,0,0,1-3.2549,1.875A3.9126,3.9126,0,0,1,35.8857,16.7686Zm14.6211,8.3007a19.0155,19.0155,0,0,0,2.0279-4.5507,17.0078,17.0078,0,0,0,.601-4.6,8.8875,8.8875,0,0,0-1.3769-5.0253,9.1887,9.1887,0,0,0-3.6553-3.1993,14.933,14.933,0,0,0-5.0322-1.4257,12.0907,12.0907,0,0,1,4.0058-.6993,15.6567,15.6567,0,0,1,6.2837,1.2246,10.6852,10.6852,0,0,1,4.4566,3.4249,8.1236,8.1236,0,0,1,1.6274,4.95,8.4439,8.4439,0,0,1-1.1518,4.125,22.91,22.91,0,0,1-3.9307,4.8252,81.0435,81.0435,0,0,1-7.7861,6.55l-.05-.05A48.4818,48.4818,0,0,0,50.5068,25.0693Z"/></svg>